<mxfile host="app.diagrams.net" agent="Mozilla/5.0 (Windows NT 10.0; Win64; x64) AppleWebKit/537.36 (KHTML, like Gecko) Chrome/131.0.0.0 Safari/537.36 Edg/131.0.0.0" version="26.0.2">
  <diagram name="第 1 页" id="WlEOf4LmtDchegWvZ4aE">
    <mxGraphModel dx="957" dy="1210" grid="0" gridSize="10" guides="1" tooltips="1" connect="1" arrows="1" fold="1" page="0" pageScale="1" pageWidth="827" pageHeight="1169" math="0" shadow="0">
      <root>
        <mxCell id="0" />
        <mxCell id="1" parent="0" />
        <mxCell id="Yue5hBevSXrqed9OU2Ou-1" value="Pool" style="swimlane;html=1;childLayout=stackLayout;resizeParent=1;resizeParentMax=0;startSize=20;horizontal=0;horizontalStack=1;whiteSpace=wrap;" vertex="1" parent="1">
          <mxGeometry x="4" y="-74" width="431" height="519" as="geometry" />
        </mxCell>
        <mxCell id="Yue5hBevSXrqed9OU2Ou-2" value="System" style="swimlane;html=1;startSize=20;" vertex="1" parent="Yue5hBevSXrqed9OU2Ou-1">
          <mxGeometry x="20" width="136" height="519" as="geometry" />
        </mxCell>
        <mxCell id="Yue5hBevSXrqed9OU2Ou-17" style="edgeStyle=none;curved=1;rounded=0;orthogonalLoop=1;jettySize=auto;html=1;fontSize=12;startSize=8;endSize=8;" edge="1" parent="Yue5hBevSXrqed9OU2Ou-2" source="Yue5hBevSXrqed9OU2Ou-8" target="Yue5hBevSXrqed9OU2Ou-12">
          <mxGeometry relative="1" as="geometry" />
        </mxCell>
        <mxCell id="Yue5hBevSXrqed9OU2Ou-8" value="Receive feedback" style="points=[[0.25,0,0],[0.5,0,0],[0.75,0,0],[1,0.25,0],[1,0.5,0],[1,0.75,0],[0.75,1,0],[0.5,1,0],[0.25,1,0],[0,0.75,0],[0,0.5,0],[0,0.25,0]];shape=mxgraph.bpmn.task;whiteSpace=wrap;rectStyle=rounded;size=10;html=1;container=1;expand=0;collapsible=0;taskMarker=abstract;" vertex="1" parent="Yue5hBevSXrqed9OU2Ou-2">
          <mxGeometry x="24.5" y="44" width="87" height="49" as="geometry" />
        </mxCell>
        <mxCell id="Yue5hBevSXrqed9OU2Ou-11" value="Summary and analysis" style="points=[[0.25,0,0],[0.5,0,0],[0.75,0,0],[1,0.25,0],[1,0.5,0],[1,0.75,0],[0.75,1,0],[0.5,1,0],[0.25,1,0],[0,0.75,0],[0,0.5,0],[0,0.25,0]];shape=mxgraph.bpmn.task;whiteSpace=wrap;rectStyle=rounded;size=10;html=1;container=1;expand=0;collapsible=0;taskMarker=abstract;" vertex="1" parent="Yue5hBevSXrqed9OU2Ou-2">
          <mxGeometry x="24.5" y="461" width="87" height="49" as="geometry" />
        </mxCell>
        <mxCell id="Yue5hBevSXrqed9OU2Ou-20" style="edgeStyle=none;curved=1;rounded=0;orthogonalLoop=1;jettySize=auto;html=1;fontSize=12;startSize=8;endSize=8;" edge="1" parent="Yue5hBevSXrqed9OU2Ou-2" source="Yue5hBevSXrqed9OU2Ou-12" target="Yue5hBevSXrqed9OU2Ou-18">
          <mxGeometry relative="1" as="geometry" />
        </mxCell>
        <mxCell id="Yue5hBevSXrqed9OU2Ou-12" value="Categorised Feedback" style="points=[[0.25,0,0],[0.5,0,0],[0.75,0,0],[1,0.25,0],[1,0.5,0],[1,0.75,0],[0.75,1,0],[0.5,1,0],[0.25,1,0],[0,0.75,0],[0,0.5,0],[0,0.25,0]];shape=mxgraph.bpmn.task;whiteSpace=wrap;rectStyle=rounded;size=10;html=1;container=1;expand=0;collapsible=0;taskMarker=abstract;" vertex="1" parent="Yue5hBevSXrqed9OU2Ou-2">
          <mxGeometry x="24.5" y="126" width="87" height="49" as="geometry" />
        </mxCell>
        <mxCell id="Yue5hBevSXrqed9OU2Ou-27" style="edgeStyle=none;curved=1;rounded=0;orthogonalLoop=1;jettySize=auto;html=1;fontSize=12;startSize=8;endSize=8;" edge="1" parent="Yue5hBevSXrqed9OU2Ou-2" source="Yue5hBevSXrqed9OU2Ou-18" target="Yue5hBevSXrqed9OU2Ou-25">
          <mxGeometry relative="1" as="geometry" />
        </mxCell>
        <mxCell id="Yue5hBevSXrqed9OU2Ou-28" value="Simple" style="edgeLabel;html=1;align=center;verticalAlign=middle;resizable=0;points=[];fontSize=12;" vertex="1" connectable="0" parent="Yue5hBevSXrqed9OU2Ou-27">
          <mxGeometry x="0.3646" y="1" relative="1" as="geometry">
            <mxPoint as="offset" />
          </mxGeometry>
        </mxCell>
        <mxCell id="Yue5hBevSXrqed9OU2Ou-18" value="Determine the&amp;nbsp;&lt;div&gt;level of feedback&lt;/div&gt;" style="points=[[0.25,0.25,0],[0.5,0,0],[0.75,0.25,0],[1,0.5,0],[0.75,0.75,0],[0.5,1,0],[0.25,0.75,0],[0,0.5,0]];shape=mxgraph.bpmn.gateway2;html=1;verticalLabelPosition=bottom;labelBackgroundColor=#ffffff;verticalAlign=top;align=center;perimeter=rhombusPerimeter;outlineConnect=0;outline=none;symbol=none;" vertex="1" parent="Yue5hBevSXrqed9OU2Ou-2">
          <mxGeometry x="53" y="200" width="30" height="30" as="geometry" />
        </mxCell>
        <mxCell id="Yue5hBevSXrqed9OU2Ou-29" style="edgeStyle=none;curved=1;rounded=0;orthogonalLoop=1;jettySize=auto;html=1;fontSize=12;startSize=8;endSize=8;" edge="1" parent="Yue5hBevSXrqed9OU2Ou-2" source="Yue5hBevSXrqed9OU2Ou-25" target="Yue5hBevSXrqed9OU2Ou-10">
          <mxGeometry relative="1" as="geometry" />
        </mxCell>
        <mxCell id="Yue5hBevSXrqed9OU2Ou-25" value="Handle directly" style="points=[[0.25,0,0],[0.5,0,0],[0.75,0,0],[1,0.25,0],[1,0.5,0],[1,0.75,0],[0.75,1,0],[0.5,1,0],[0.25,1,0],[0,0.75,0],[0,0.5,0],[0,0.25,0]];shape=mxgraph.bpmn.task;whiteSpace=wrap;rectStyle=rounded;size=10;html=1;container=1;expand=0;collapsible=0;taskMarker=abstract;" vertex="1" parent="Yue5hBevSXrqed9OU2Ou-2">
          <mxGeometry x="24.5" y="294" width="87" height="49" as="geometry" />
        </mxCell>
        <mxCell id="Yue5hBevSXrqed9OU2Ou-26" style="edgeStyle=none;curved=1;rounded=0;orthogonalLoop=1;jettySize=auto;html=1;exitX=0.75;exitY=0.75;exitDx=0;exitDy=0;exitPerimeter=0;entryX=0.6;entryY=0.544;entryDx=0;entryDy=0;entryPerimeter=0;fontSize=12;startSize=8;endSize=8;" edge="1" parent="Yue5hBevSXrqed9OU2Ou-2" source="Yue5hBevSXrqed9OU2Ou-18" target="Yue5hBevSXrqed9OU2Ou-18">
          <mxGeometry relative="1" as="geometry" />
        </mxCell>
        <mxCell id="Yue5hBevSXrqed9OU2Ou-30" style="edgeStyle=none;curved=1;rounded=0;orthogonalLoop=1;jettySize=auto;html=1;fontSize=12;startSize=8;endSize=8;" edge="1" parent="Yue5hBevSXrqed9OU2Ou-2" source="Yue5hBevSXrqed9OU2Ou-10" target="Yue5hBevSXrqed9OU2Ou-11">
          <mxGeometry relative="1" as="geometry" />
        </mxCell>
        <mxCell id="Yue5hBevSXrqed9OU2Ou-10" value="Notification of results" style="points=[[0.25,0,0],[0.5,0,0],[0.75,0,0],[1,0.25,0],[1,0.5,0],[1,0.75,0],[0.75,1,0],[0.5,1,0],[0.25,1,0],[0,0.75,0],[0,0.5,0],[0,0.25,0]];shape=mxgraph.bpmn.task;whiteSpace=wrap;rectStyle=rounded;size=10;html=1;container=1;expand=0;collapsible=0;taskMarker=abstract;" vertex="1" parent="Yue5hBevSXrqed9OU2Ou-2">
          <mxGeometry x="24.5" y="382" width="87" height="49" as="geometry" />
        </mxCell>
        <mxCell id="Yue5hBevSXrqed9OU2Ou-3" value="Customers" style="swimlane;html=1;startSize=20;" vertex="1" parent="Yue5hBevSXrqed9OU2Ou-1">
          <mxGeometry x="156" width="120" height="519" as="geometry" />
        </mxCell>
        <mxCell id="Yue5hBevSXrqed9OU2Ou-6" value="Submit Feedback" style="points=[[0.25,0,0],[0.5,0,0],[0.75,0,0],[1,0.25,0],[1,0.5,0],[1,0.75,0],[0.75,1,0],[0.5,1,0],[0.25,1,0],[0,0.75,0],[0,0.5,0],[0,0.25,0]];shape=mxgraph.bpmn.task;whiteSpace=wrap;rectStyle=rounded;size=10;html=1;container=1;expand=0;collapsible=0;taskMarker=abstract;" vertex="1" parent="Yue5hBevSXrqed9OU2Ou-3">
          <mxGeometry x="16.5" y="43" width="87" height="49" as="geometry" />
        </mxCell>
        <mxCell id="Yue5hBevSXrqed9OU2Ou-7" value="Receive notification of results" style="points=[[0.25,0,0],[0.5,0,0],[0.75,0,0],[1,0.25,0],[1,0.5,0],[1,0.75,0],[0.75,1,0],[0.5,1,0],[0.25,1,0],[0,0.75,0],[0,0.5,0],[0,0.25,0]];shape=mxgraph.bpmn.task;whiteSpace=wrap;rectStyle=rounded;size=10;html=1;container=1;expand=0;collapsible=0;taskMarker=abstract;" vertex="1" parent="Yue5hBevSXrqed9OU2Ou-3">
          <mxGeometry x="16.5" y="408" width="87" height="49" as="geometry" />
        </mxCell>
        <mxCell id="Yue5hBevSXrqed9OU2Ou-4" value="Relevant Department" style="swimlane;html=1;startSize=20;" vertex="1" parent="Yue5hBevSXrqed9OU2Ou-1">
          <mxGeometry x="276" width="155" height="519" as="geometry" />
        </mxCell>
        <mxCell id="Yue5hBevSXrqed9OU2Ou-23" style="edgeStyle=none;curved=1;rounded=0;orthogonalLoop=1;jettySize=auto;html=1;fontSize=12;startSize=8;endSize=8;" edge="1" parent="Yue5hBevSXrqed9OU2Ou-4" source="Yue5hBevSXrqed9OU2Ou-13" target="Yue5hBevSXrqed9OU2Ou-14">
          <mxGeometry relative="1" as="geometry" />
        </mxCell>
        <mxCell id="Yue5hBevSXrqed9OU2Ou-13" value="Feedback on investigation and processing" style="points=[[0.25,0,0],[0.5,0,0],[0.75,0,0],[1,0.25,0],[1,0.5,0],[1,0.75,0],[0.75,1,0],[0.5,1,0],[0.25,1,0],[0,0.75,0],[0,0.5,0],[0,0.25,0]];shape=mxgraph.bpmn.task;whiteSpace=wrap;rectStyle=rounded;size=10;html=1;container=1;expand=0;collapsible=0;taskMarker=abstract;" vertex="1" parent="Yue5hBevSXrqed9OU2Ou-4">
          <mxGeometry x="39" y="49" width="87" height="49" as="geometry" />
        </mxCell>
        <mxCell id="Yue5hBevSXrqed9OU2Ou-14" value="Submission of results" style="points=[[0.25,0,0],[0.5,0,0],[0.75,0,0],[1,0.25,0],[1,0.5,0],[1,0.75,0],[0.75,1,0],[0.5,1,0],[0.25,1,0],[0,0.75,0],[0,0.5,0],[0,0.25,0]];shape=mxgraph.bpmn.task;whiteSpace=wrap;rectStyle=rounded;size=10;html=1;container=1;expand=0;collapsible=0;taskMarker=abstract;" vertex="1" parent="Yue5hBevSXrqed9OU2Ou-4">
          <mxGeometry x="39" y="244" width="87" height="49" as="geometry" />
        </mxCell>
        <mxCell id="Yue5hBevSXrqed9OU2Ou-16" style="edgeStyle=none;curved=1;rounded=0;orthogonalLoop=1;jettySize=auto;html=1;fontSize=12;startSize=8;endSize=8;" edge="1" parent="Yue5hBevSXrqed9OU2Ou-1" source="Yue5hBevSXrqed9OU2Ou-6" target="Yue5hBevSXrqed9OU2Ou-8">
          <mxGeometry relative="1" as="geometry" />
        </mxCell>
        <mxCell id="Yue5hBevSXrqed9OU2Ou-21" style="edgeStyle=none;curved=1;rounded=0;orthogonalLoop=1;jettySize=auto;html=1;fontSize=12;startSize=8;endSize=8;" edge="1" parent="Yue5hBevSXrqed9OU2Ou-1" source="Yue5hBevSXrqed9OU2Ou-18" target="Yue5hBevSXrqed9OU2Ou-13">
          <mxGeometry relative="1" as="geometry">
            <Array as="points">
              <mxPoint x="240" y="266" />
            </Array>
          </mxGeometry>
        </mxCell>
        <mxCell id="Yue5hBevSXrqed9OU2Ou-22" value="Complicated" style="edgeLabel;html=1;align=center;verticalAlign=middle;resizable=0;points=[];fontSize=12;" vertex="1" connectable="0" parent="Yue5hBevSXrqed9OU2Ou-21">
          <mxGeometry x="0.1364" y="30" relative="1" as="geometry">
            <mxPoint x="1" as="offset" />
          </mxGeometry>
        </mxCell>
        <mxCell id="Yue5hBevSXrqed9OU2Ou-24" style="edgeStyle=none;curved=1;rounded=0;orthogonalLoop=1;jettySize=auto;html=1;fontSize=12;startSize=8;endSize=8;" edge="1" parent="Yue5hBevSXrqed9OU2Ou-1" source="Yue5hBevSXrqed9OU2Ou-14" target="Yue5hBevSXrqed9OU2Ou-10">
          <mxGeometry relative="1" as="geometry" />
        </mxCell>
        <mxCell id="Yue5hBevSXrqed9OU2Ou-31" style="edgeStyle=none;curved=1;rounded=0;orthogonalLoop=1;jettySize=auto;html=1;fontSize=12;startSize=8;endSize=8;" edge="1" parent="Yue5hBevSXrqed9OU2Ou-1" source="Yue5hBevSXrqed9OU2Ou-11" target="Yue5hBevSXrqed9OU2Ou-7">
          <mxGeometry relative="1" as="geometry" />
        </mxCell>
        <mxCell id="Yue5hBevSXrqed9OU2Ou-15" style="edgeStyle=none;curved=1;rounded=0;orthogonalLoop=1;jettySize=auto;html=1;fontSize=12;startSize=8;endSize=8;" edge="1" parent="1" source="Yue5hBevSXrqed9OU2Ou-5" target="Yue5hBevSXrqed9OU2Ou-6">
          <mxGeometry relative="1" as="geometry">
            <Array as="points">
              <mxPoint x="106" y="-56" />
            </Array>
          </mxGeometry>
        </mxCell>
        <mxCell id="Yue5hBevSXrqed9OU2Ou-5" value="" style="points=[[0.145,0.145,0],[0.5,0,0],[0.855,0.145,0],[1,0.5,0],[0.855,0.855,0],[0.5,1,0],[0.145,0.855,0],[0,0.5,0]];shape=mxgraph.bpmn.event;html=1;verticalLabelPosition=bottom;labelBackgroundColor=#ffffff;verticalAlign=top;align=center;perimeter=ellipsePerimeter;outlineConnect=0;aspect=fixed;outline=standard;symbol=general;" vertex="1" parent="1">
          <mxGeometry x="-74" y="-40" width="40" height="40" as="geometry" />
        </mxCell>
        <mxCell id="Yue5hBevSXrqed9OU2Ou-32" value="Feedback process completed" style="points=[[0.145,0.145,0],[0.5,0,0],[0.855,0.145,0],[1,0.5,0],[0.855,0.855,0],[0.5,1,0],[0.145,0.855,0],[0,0.5,0]];shape=mxgraph.bpmn.event;html=1;verticalLabelPosition=bottom;labelBackgroundColor=#ffffff;verticalAlign=top;align=center;perimeter=ellipsePerimeter;outlineConnect=0;aspect=fixed;outline=end;symbol=terminate2;" vertex="1" parent="1">
          <mxGeometry x="200" y="470" width="40" height="40" as="geometry" />
        </mxCell>
        <mxCell id="Yue5hBevSXrqed9OU2Ou-33" style="edgeStyle=none;curved=1;rounded=0;orthogonalLoop=1;jettySize=auto;html=1;fontSize=12;startSize=8;endSize=8;" edge="1" parent="1" source="Yue5hBevSXrqed9OU2Ou-7" target="Yue5hBevSXrqed9OU2Ou-32">
          <mxGeometry relative="1" as="geometry" />
        </mxCell>
      </root>
    </mxGraphModel>
  </diagram>
</mxfile>
